<?xml version="1.0" standalone="no"?>
<!DOCTYPE svg PUBLIC "-//W3C//DTD SVG 20010904//EN"
 "http://www.w3.org/TR/2001/REC-SVG-20010904/DTD/svg10.dtd">
<svg version="1.0" xmlns="http://www.w3.org/2000/svg"
 width="260.000000pt" height="260.000000pt" viewBox="0 0 260.000000 260.000000"
 preserveAspectRatio="xMidYMid meet">
<metadata>
Created by potrace 1.11, written by Peter Selinger 2001-2013
</metadata>
<g transform="translate(0.000000,260.000000) scale(0.100000,-0.100000)"
fill="#000000" stroke="none">
<path d="M1257 1953 c-4 -3 -7 -96 -7 -206 l0 -201 -35 41 c-54 63 -123 93
-214 93 -129 0 -227 -64 -288 -188 -26 -53 -28 -66 -28 -177 0 -112 2 -124 29
-179 36 -73 95 -134 161 -167 42 -20 65 -24 140 -24 78 0 97 4 141 27 28 15
65 43 82 62 17 20 34 36 37 36 3 0 5 -16 5 -35 0 -58 35 -85 110 -85 l60 0 0
64 c0 55 -3 66 -19 71 -10 3 -22 16 -25 28 -3 12 -6 208 -6 435 l0 412 -68 0
c-38 0 -72 -3 -75 -7z m-112 -432 c28 -16 63 -47 78 -68 25 -37 27 -46 27
-150 0 -99 -2 -113 -22 -139 -75 -96 -195 -122 -288 -60 -47 31 -97 113 -106
173 -13 89 37 197 115 250 51 34 131 32 196 -6z"/>
<path d="M582 1665 c-53 -16 -105 -55 -143 -108 l-29 -40 0 76 0 77 -70 0 -70
0 0 -360 0 -360 75 0 75 0 0 219 c0 210 1 219 23 251 37 55 87 88 160 106 l67
17 0 68 c0 65 -1 69 -22 68 -13 0 -42 -6 -66 -14z"/>
<path d="M1505 1613 c13 -32 78 -191 145 -353 67 -162 122 -302 122 -310 1
-28 -42 -127 -68 -155 -23 -25 -30 -27 -70 -21 l-45 6 3 -68 3 -67 77 0 c69 0
81 3 119 30 24 17 51 44 61 61 15 26 348 916 348 930 0 3 -32 4 -71 2 l-72 -3
-96 -282 c-53 -156 -98 -283 -101 -283 -3 0 -40 93 -84 208 -43 114 -92 242
-108 285 l-30 77 -78 0 -79 0 24 -57z"/>
<path d="M2207 1123 c-4 -3 -7 -44 -7 -90 l0 -83 65 0 65 0 0 90 0 90 -58 0
c-32 0 -62 -3 -65 -7z"/>
</g>
</svg>
